<svg xmlns="http://www.w3.org/2000/svg" xmlns:xlink="http://www.w3.org/1999/xlink" width="40" zoomAndPan="magnify" viewBox="0 0 30 30.000001" height="40" preserveAspectRatio="xMidYMid meet" version="1.2"><defs><clipPath id="c648bba02a"><path d="M 4.621094 0 L 25.667969 0 L 25.667969 29.03125 L 4.621094 29.03125 Z M 4.621094 0 "/></clipPath><clipPath id="b4b018ebad"><path d="M 10.644531 18.894531 L 19.367188 18.894531 L 19.367188 22.199219 L 10.644531 22.199219 Z M 10.644531 18.894531 "/></clipPath><clipPath id="db540bd9ab"><path d="M 15 18.894531 C 12.59375 18.894531 10.644531 19.632812 10.644531 20.546875 C 10.644531 21.460938 12.59375 22.199219 15 22.199219 C 17.40625 22.199219 19.355469 21.460938 19.355469 20.546875 C 19.355469 19.632812 17.40625 18.894531 15 18.894531 Z M 15 18.894531 "/></clipPath></defs><g id="858c97da69"><g clip-rule="nonzero" clip-path="url(#c648bba02a)"><path style=" stroke:none;fill-rule:evenodd;fill:#4b68fb;fill-opacity:1;" d="M 23.75 16.476562 L 15.808594 28.582031 C 15.613281 28.863281 15.332031 29.023438 14.992188 29.023438 C 14.660156 29.023438 14.367188 28.863281 14.183594 28.582031 L 6.234375 16.476562 C 5.207031 14.816406 4.621094 12.835938 4.621094 10.722656 C 4.621094 4.8125 9.261719 0.0117188 14.992188 0.0117188 C 20.71875 0.0117188 25.375 4.8125 25.375 10.722656 C 25.375 12.835938 24.777344 14.816406 23.75 16.476562 Z M 11.144531 12.957031 L 12.28125 12.957031 C 12.402344 12.957031 12.5 13.070312 12.5 13.191406 L 12.5 14.09375 C 12.5 14.351562 12.304688 14.558594 12.070312 14.558594 L 11.363281 14.558594 C 11.132812 14.558594 10.9375 14.351562 10.9375 14.09375 L 10.9375 13.191406 C 10.9375 13.070312 11.035156 12.957031 11.144531 12.957031 Z M 17.824219 12.957031 L 18.960938 12.957031 C 19.082031 12.957031 19.179688 13.070312 19.179688 13.191406 L 19.179688 14.09375 C 19.179688 14.351562 18.984375 14.558594 18.753906 14.558594 L 18.046875 14.558594 C 17.800781 14.558594 17.617188 14.351562 17.617188 14.09375 L 17.617188 13.191406 C 17.617188 13.070312 17.714844 12.957031 17.824219 12.957031 Z M 12.941406 5.824219 L 17.179688 5.824219 C 17.433594 5.824219 17.507812 5.972656 17.558594 6.128906 L 17.972656 7.742188 C 18.058594 8.074219 17.875 8.171875 17.703125 8.171875 L 12.414062 8.171875 C 12.242188 8.171875 12.046875 8.074219 12.132812 7.742188 L 12.5625 6.128906 C 12.597656 5.972656 12.683594 5.824219 12.941406 5.824219 Z M 18.328125 10.003906 C 18.765625 10.003906 19.121094 10.355469 19.121094 10.785156 C 19.121094 11.222656 18.765625 11.566406 18.328125 11.566406 C 17.898438 11.566406 17.542969 11.222656 17.542969 10.785156 C 17.542969 10.355469 17.898438 10.003906 18.328125 10.003906 Z M 11.777344 10.003906 C 12.21875 10.003906 12.5625 10.355469 12.5625 10.785156 C 12.5625 11.222656 12.21875 11.566406 11.777344 11.566406 C 11.351562 11.566406 10.996094 11.222656 10.996094 10.785156 C 10.996094 10.355469 11.351562 10.003906 11.777344 10.003906 Z M 12.792969 5.175781 L 17.324219 5.175781 C 17.898438 5.175781 18.105469 5.484375 18.277344 6.03125 L 18.863281 7.890625 C 18.9375 7.828125 19.023438 7.792969 19.121094 7.792969 L 19.71875 7.792969 C 19.925781 7.792969 20.109375 7.976562 20.109375 8.183594 C 20.109375 8.402344 19.925781 8.574219 19.71875 8.574219 L 19.265625 8.574219 L 19.78125 9.195312 C 20.0625 9.527344 20.046875 9.964844 20.046875 10.394531 L 20.046875 11.824219 C 20.046875 12.398438 19.792969 12.605469 19.21875 12.605469 L 10.898438 12.605469 C 10.324219 12.605469 10.070312 12.398438 10.070312 11.824219 L 10.070312 10.394531 C 10.070312 9.964844 10.058594 9.527344 10.335938 9.195312 L 10.839844 8.574219 L 10.398438 8.574219 C 10.179688 8.574219 10.007812 8.402344 10.007812 8.183594 C 10.007812 7.976562 10.179688 7.792969 10.398438 7.792969 L 10.984375 7.792969 C 11.082031 7.792969 11.179688 7.828125 11.253906 7.890625 L 11.828125 6.03125 C 12 5.484375 12.21875 5.175781 12.792969 5.175781 Z M 14.992188 2.503906 C 10.753906 2.503906 7.320312 6.058594 7.320312 10.429688 C 7.320312 14.816406 10.753906 18.359375 14.992188 18.359375 C 19.230469 18.359375 22.664062 14.816406 22.664062 10.429688 C 22.664062 6.058594 19.230469 2.503906 14.992188 2.503906 Z M 14.992188 2.503906 "/></g><g clip-rule="nonzero" clip-path="url(#b4b018ebad)"><g clip-rule="nonzero" clip-path="url(#db540bd9ab)"><path style=" stroke:none;fill-rule:nonzero;fill:#4b68fb;fill-opacity:1;" d="M 10.644531 18.894531 L 19.355469 18.894531 L 19.355469 22.199219 L 10.644531 22.199219 Z M 10.644531 18.894531 "/></g></g></g></svg>